<svg xmlns="http://www.w3.org/2000/svg" viewBox="0 0 844.47 398.54"><defs><style>.cls-1{fill:#9095a5;}.cls-13,.cls-2{fill:#fff;}.cls-16,.cls-3{fill:#c3ccd8;}.cls-14,.cls-18,.cls-19,.cls-20,.cls-21,.cls-23,.cls-4,.cls-6{fill:none;}.cls-4{stroke:#2db3a0;}.cls-13,.cls-14,.cls-18,.cls-19,.cls-20,.cls-21,.cls-23,.cls-4,.cls-6{stroke-miterlimit:10;}.cls-5{fill:#2db3a0;}.cls-6{stroke:#9095a5;stroke-width:0.5px;}.cls-15,.cls-22,.cls-7,.cls-8{fill:#626c7b;}.cls-7{fill-rule:evenodd;}.cls-8{font-size:16.95px;}.cls-22,.cls-8{font-family:Roboto-Medium, Roboto;}.cls-9{fill:#626d7c;}.cls-10{fill:#727272;}.cls-11{fill:#33b39f;}.cls-12{fill:#39b39e;}.cls-13,.cls-14{stroke:#636d7c;stroke-width:0.75px;}.cls-16{font-size:15px;font-family:Roboto-Regular, Roboto;}.cls-17{opacity:0.3;}.cls-18,.cls-19,.cls-20,.cls-21,.cls-23{stroke:#37b29e;}.cls-19{stroke-dasharray:12.53 12.53;}.cls-20{stroke-dasharray:11.87 11.87;}.cls-21{stroke-dasharray:12.4 12.4;}.cls-22{font-size:14px;}.cls-23{stroke-dasharray:12.18 12.18;}</style></defs><title>Asset 1</title><g id="Layer_2" data-name="Layer 2"><g id="Layer_1-2" data-name="Layer 1"><path class="cls-1" d="M141.6,320.41c-43.36,0-83.3-11.77-104.23-30.72-8.28-7.49-13.08-15.62-14.25-24.14a29.61,29.61,0,0,1-.28-4c0-32.47,53.28-58.88,118.76-58.88s118.76,26.41,118.76,58.88a28.69,28.69,0,0,1-.39,4.71v.1c-1.39,8.48-6.37,16.55-14.83,24C224,308.88,184.36,320.41,141.6,320.41Z"/><path class="cls-2" d="M141.6,203.65c31.68,0,61.44,6.15,83.79,17.33,21.9,11,34,25.35,34,40.55a29.08,29.08,0,0,1-.37,4.55l0,.17h0c-1.37,8.21-6.24,16.06-14.49,23.31-20.92,18.4-60.34,29.84-102.87,29.84C98.47,319.41,58.79,307.74,38,289c-8.1-7.33-12.79-15.25-13.93-23.54a27.58,27.58,0,0,1-.27-3.88c0-15.2,12.07-29.6,34-40.55,22.34-11.18,52.1-17.33,83.78-17.33m0-2c-66.14,0-119.76,26.81-119.76,59.88a30.25,30.25,0,0,0,.29,4.15c1.23,8.94,6.37,17.33,14.57,24.75,20.4,18.47,59.73,31,104.9,31,44.65,0,83.6-12.22,104.19-30.34,8.39-7.37,13.74-15.73,15.17-24.65v0a30.38,30.38,0,0,0,.4-4.87c0-33.07-53.62-59.88-119.76-59.88Z"/><path class="cls-3" d="M141.6,320.72c-42.8,0-82.26-11.66-103.4-30.48,21.3-18.43,60.49-29.85,102.69-29.85,42.8,0,82.26,11.66,103.4,30.48C223,309.31,183.8,320.72,141.6,320.72Z"/><path class="cls-2" d="M140.89,261.39c42,0,80.71,11.25,101.87,29.47C221.45,308.71,183,319.72,141.6,319.72c-42,0-80.71-11.25-101.87-29.47C61,272.41,99.49,261.39,140.89,261.39m0-2c-44.65,0-83.6,12.43-104.19,30.84C57.1,309,96.43,321.72,141.6,321.72c44.65,0,83.6-12.42,104.19-30.84-20.4-18.77-59.73-31.49-104.9-31.49Z"/><line class="cls-4" x1="27.29" y1="339.72" x2="222.79" y2="277.22"/><polygon class="cls-5" points="0.7 349.43 14.02 345.05 14.64 346.93 26.91 339.63 12.7 341.02 13.32 342.91 0 347.29 0.7 349.43"/><line class="cls-4" x1="256.17" y1="335.8" x2="60.11" y2="275.08"/><polygon class="cls-5" points="283.52 343.07 270.1 339.03 270.67 337.13 256.43 336.1 268.88 343.09 269.45 341.19 282.87 345.23 283.52 343.07"/><line class="cls-6" x1="137.71" y1="379.46" x2="136.29" y2="206.72"/><polygon class="cls-5" points="139.23 398.51 139.07 389.13 140.4 389.1 138.16 379.82 136.24 389.18 137.57 389.15 137.73 398.53 139.23 398.51"/><line class="cls-6" x1="252.79" y1="299.22" x2="50.79" y2="307.22"/><path class="cls-7" d="M260.24,315.76a43,43,0,0,1-.82,11.53,35.29,35.29,0,0,1-3.89,9.42c-4,6.76-9.76,12.31-16,16.9-16.8,12.28-37.63,18.81-57.89,22.5a228.37,228.37,0,0,1-41,3.61c-66.14,0-119.4-25-119.4-58.1a56.26,56.26,0,0,1,0-6.75l.59-49.33c1.22,8.94,6.36,17.33,14.57,24.75C48.18,301,66.28,309.64,88.16,315.07a222.51,222.51,0,0,0,53.14,6.2,222.1,222.1,0,0,0,53.51-6.3c21.28-5.32,38.95-13.72,50.68-24,8.39-7.38,13.74-15.74,15.17-24.66q-.26,21.6-.53,43.2C260.11,311.54,260.19,313.65,260.24,315.76Z"/><text class="cls-8" transform="translate(113.39 337.43)">VR</text><path class="cls-9" d="M316.08,123.23a2.88,2.88,0,0,0-2.6-1,3.06,3.06,0,0,0-2.25,1.67c0-.12,0-.24,0-.36.17-1.85.35-3.7.51-5.55a1.88,1.88,0,0,0,0-.53q-.45-2.72-.92-5.45a.52.52,0,0,1,0-.25,3.46,3.46,0,0,0,.26-2.24,5.88,5.88,0,0,0-6.34-4.88,2.77,2.77,0,0,0-1.92.83.42.42,0,0,1-.3.09c-1.65.06-3.31.08-5,.17a7.68,7.68,0,0,0-1.61.38c-1.45.41-2.89.84-4.34,1.26a1.16,1.16,0,0,1-.34.05,2.91,2.91,0,0,0,1.23-2.49,2.83,2.83,0,0,0-1.46-2.37l.05-.1a2,2,0,0,1,.35,0l5.28.49a1.29,1.29,0,0,0,.34,0c1.78-.29,3.59-.49,5.34-.91a8.53,8.53,0,0,0,6.69-8.16c.08-1.77-.05-3.56-.12-5.34a4.84,4.84,0,0,0-.3-1.16l-1.23-4.27c0-.11-.05-.22-.1-.46,2,1.62,3.61,1.41,5-.65,0,.13,0,.25,0,.37-.15,1.64-.31,3.27-.46,4.91a1.7,1.7,0,0,0,0,.45c.21,2.66.31,5.38,1.58,7.8a8.63,8.63,0,0,0,8.22,4.82c.75,0,1.51-.07,2.26,0a14.76,14.76,0,0,0,4.66-.75c1.1-.36,2.21-.67,3.32-1a1.51,1.51,0,0,1,.38-.07,3,3,0,0,0-1.23,2.49,2.83,2.83,0,0,0,1.46,2.37l0,.09a1.1,1.1,0,0,1-.31,0c-.8-.07-1.6-.11-2.4-.23a19,19,0,0,0-6.69.24,12.79,12.79,0,0,0-3.85,1.1,8.83,8.83,0,0,0-4.81,8.22c0,.77.07,1.55.06,2.33a14.09,14.09,0,0,0,.73,4.59c.33,1,.62,2.06.92,3.1,0,.11,0,.22.06.33Z"/><path class="cls-9" d="M306.19,109.44c-.87-.85-1.85-1.59-2.66-2.49-.68-.74-.46-1.35.51-1.64a4.86,4.86,0,0,1,4,.57,5.17,5.17,0,0,1,2.59,4.21,3.44,3.44,0,0,1-.11,1.11.72.72,0,0,1-1.07.55,7.11,7.11,0,0,1-1.18-.64c-.36-.23-.69-.5-1-.76l-1.1-.91Z"/><path class="cls-10" d="M334.45,98.88l-1.44.17a14.3,14.3,0,0,1-.76-3.82c0-2.76-.05-5.52-.08-8.28,0-.32.05-.6.42-.64s.5.21.57.52c.71,3.09,1.43,6.18,2.14,9.27a.51.51,0,0,1,0,.3C335,97.31,334.68,98.22,334.45,98.88Z"/><path class="cls-10" d="M290.33,103.27l-1.33.08a14.72,14.72,0,0,1-.76-3.46c-.05-3-.07-5.9-.11-8.85,0-.3.12-.52.43-.56s.47.17.54.46c.46,2,.93,4,1.39,6,.25,1.07.51,2.15.75,3.23a1.1,1.1,0,0,1,0,.51C290.94,101.57,290.63,102.44,290.33,103.27Z"/><path class="cls-10" d="M307.9,80.51l.18,1.31c-.79.45-1.61.93-2.45,1.4a.8.8,0,0,1-.44.06q-4.68-.16-9.36-.36c-.44,0-.65-.16-.65-.46s.22-.47.52-.52l5.56-1c.53-.1,1.06-.18,1.59-.3A13.22,13.22,0,0,1,307.9,80.51Z"/><path class="cls-10" d="M311.65,81.45l-.09-1.51c.6-.35,1.44-.84,2.29-1.31a.72.72,0,0,1,.36,0l9.41.36h.15a.46.46,0,0,1,.48.43.47.47,0,0,1-.43.53c-3,.53-6,1.12-9,1.57A18.8,18.8,0,0,1,311.65,81.45Z"/><path class="cls-10" d="M312,124.52l.08,1.28.25,0c-.36.22-.75.4-1.08.65a4.63,4.63,0,0,1-3.28.83c-2.65-.18-5.31-.23-8-.34-.3,0-.56-.09-.6-.43s.2-.49.52-.55c2.73-.49,5.46-1,8.19-1.49A14.41,14.41,0,0,1,312,124.52Z"/><path class="cls-10" d="M289.15,107l1.45-.16a13.85,13.85,0,0,1,.75,3.76q0,4.19.08,8.36c0,.33-.07.59-.44.62s-.47-.21-.54-.51l-2.13-9.2a.94.94,0,0,1,0-.44C288.61,108.57,288.93,107.69,289.15,107Z"/><path class="cls-10" d="M315.72,125.49l-.19-1.38c.35-.21.79-.43,1.18-.71a4.15,4.15,0,0,1,2.89-.74c2.72.17,5.46.22,8.19.34a.82.82,0,0,1,.57.26c.22.29,0,.63-.43.71-1.2.22-2.4.45-3.6.66-1.76.31-3.52.69-5.3.89A24.32,24.32,0,0,1,315.72,125.49Z"/><path class="cls-10" d="M333.28,102.6a5.79,5.79,0,0,0,.69,0,3.58,3.58,0,0,0,.61-.11,14.58,14.58,0,0,1,.82,4.07c0,2.75.05,5.49.08,8.24,0,.31-.09.56-.43.6s-.49-.19-.56-.49l-2.13-9.24a.93.93,0,0,1,0-.47C332.66,104.35,333,103.48,333.28,102.6Z"/><path class="cls-9" d="M310.69,81.74a1.29,1.29,0,0,1-2-1.67,1.29,1.29,0,0,1,1.82-.14A1.28,1.28,0,0,1,310.69,81.74Z"/><path class="cls-9" d="M290.73,105.88a1.28,1.28,0,1,1-.16-1.81A1.27,1.27,0,0,1,290.73,105.88Z"/><path class="cls-9" d="M333,101.83a1.28,1.28,0,0,1,1.66-2,1.28,1.28,0,1,1-1.66,2Z"/><path class="cls-9" d="M313.05,126a1.28,1.28,0,0,1,1.67-2,1.28,1.28,0,1,1-1.67,2Z"/><path class="cls-9" d="M307.35,79.92a2.52,2.52,0,0,1,2.22-1.56,2.43,2.43,0,0,1,2.09.88c-.46.43-.54.44-1,.15a1.66,1.66,0,0,0-2.13.24A1,1,0,0,1,307.35,79.92Z"/><path class="cls-9" d="M288.48,107.28a2.58,2.58,0,0,1-.13-4.37c.13.42.29.74-.05,1.16a1.66,1.66,0,0,0,.13,2.17C288.82,106.67,288.82,106.72,288.48,107.28Z"/><path class="cls-9" d="M335.11,98.63a2.57,2.57,0,0,1,.15,4.37c-.15-.43-.28-.76.06-1.18a1.66,1.66,0,0,0-.14-2.14C334.78,99.24,334.78,99.23,335.11,98.63Z"/><path class="cls-9" d="M316.25,126a2.57,2.57,0,0,1-4.3.7c.39-.43.55-.45,1-.17a1.65,1.65,0,0,0,2.13-.23A1,1,0,0,1,316.25,126Z"/><path class="cls-9" d="M332.38,98.77a1.08,1.08,0,0,1,0,1.18,1.66,1.66,0,0,0,.17,2.09c.35.41.35.47,0,1a2.46,2.46,0,0,1-1.23-1.94A2.52,2.52,0,0,1,332.38,98.77Z"/><path class="cls-9" d="M291.22,107.15a1.06,1.06,0,0,1,0-1.18,1.68,1.68,0,0,0-.17-2.09c-.36-.42-.36-.45,0-1a2.44,2.44,0,0,1,1.23,1.9A2.52,2.52,0,0,1,291.22,107.15Z"/><path class="cls-9" d="M311.54,124a2.53,2.53,0,0,1,2.11-1.53,2.46,2.46,0,0,1,2.15.83c-.47.43-.53.44-1,.18a1.68,1.68,0,0,0-2.14.27C312.3,124.15,312,124,311.54,124Z"/><path class="cls-9" d="M312,82a2.53,2.53,0,0,1-4.2.66c.33-.39.53-.43.95-.19a1.69,1.69,0,0,0,2.12-.21A1,1,0,0,1,312,82Z"/><path class="cls-9" d="M336.12,99.21h.34c.56,0,.65.08.72.63s.09.94.13,1.42,0,.62-.55.74l-.36.07A2.89,2.89,0,0,0,336.12,99.21Z"/><path class="cls-9" d="M287.21,103.85a2.92,2.92,0,0,0,.27,2.86H287a.46.46,0,0,1-.53-.46c-.06-.6-.12-1.19-.17-1.79a.43.43,0,0,1,.36-.49Z"/><path class="cls-9" d="M312.7,127.56a2.89,2.89,0,0,0,2.78-.24c.2.71,0,1-.66,1l-1.27.11c-.58,0-.69,0-.81-.61C312.73,127.77,312.72,127.69,312.7,127.56Z"/><path class="cls-9" d="M310.91,78.36a2.92,2.92,0,0,0-2.81.24c-.14-.78,0-.95.7-1l1.28-.12c.55,0,.65,0,.77.56C310.87,78.11,310.88,78.2,310.91,78.36Z"/><path class="cls-11" d="M294.94,109.21a.61.61,0,0,1,.63-.2.51.51,0,0,1,.37.46c.09.56.16,1.13.29,1.68a11.22,11.22,0,0,0,7.08,7.86,10.73,10.73,0,0,0,4.73.61.5.5,0,0,1,.58.48.49.49,0,0,1-.48.56,12,12,0,0,1-4.21-.38,12.37,12.37,0,0,1-4.73-2.45,11.67,11.67,0,0,1-2.86-3.5,12.16,12.16,0,0,1-1.43-4.66A2.13,2.13,0,0,1,294.94,109.21Z"/><path class="cls-11" d="M301.46,115.21a8,8,0,0,1-2.34-3.39,15.66,15.66,0,0,1-.48-2,.48.48,0,0,1,.48-.57.5.5,0,0,1,.56.48,6.85,6.85,0,0,0,3.38,5.34,6.77,6.77,0,0,0,4,1h.19a.47.47,0,0,1,.54.46c0,.33-.14.57-.46.56a14.72,14.72,0,0,1-2-.08,7,7,0,0,1-2.68-.94C302.22,115.74,301.85,115.46,301.46,115.21Z"/><path class="cls-11" d="M307.55,113.61a1.46,1.46,0,0,1-.38.14,4.9,4.9,0,0,1-4.33-2,4.66,4.66,0,0,1-1-2.4c-.05-.41.09-.62.44-.66s.54.16.6.53a3.87,3.87,0,0,0,2.47,3.2,3.73,3.73,0,0,0,1.69.26.5.5,0,0,1,.57.51A1.42,1.42,0,0,1,307.55,113.61Z"/><path class="cls-2" d="M306.48,107.28a1.33,1.33,0,1,1,2,1.72,1.35,1.35,0,0,1-1.86.17A1.32,1.32,0,0,1,306.48,107.28Zm1.66,1.4a.84.84,0,0,0-1.27-1.1.84.84,0,0,0,.11,1.21A.83.83,0,0,0,308.14,108.68Z"/><path class="cls-2" d="M309.27,107.94a.33.33,0,0,1,.51.43.33.33,0,1,1-.51-.43Z"/><path class="cls-2" d="M179.44,302.44,137.65,316.6a.28.28,0,0,1-.36-.27l.15-22.08a.26.26,0,0,1,.19-.26l41.63-13.25a.27.27,0,0,1,.36.26v21.18A.27.27,0,0,1,179.44,302.44Z"/><polygon class="cls-12" points="179.63 280.62 137.44 294.05 120.29 268.72 161.04 255.72 179.63 280.62"/><polygon class="cls-13" points="104.3 305.72 137.44 316.25 137.44 294.05 120.32 268.61 104.3 285.89 104.3 305.72"/><line class="cls-14" x1="137.44" y1="294.05" x2="179.62" y2="280.62"/><polyline class="cls-14" points="137.79 316.22 179.63 302.38 179.63 280.62 161.04 255.72 120.79 268.22"/><path class="cls-15" d="M114.49,296.82l-3-.86-.9,3.16-1-.27,2.06-7.17,4.44,1.28-.22.77-3.5-1-.7,2.45,3,.87Z"/><path class="cls-15" d="M118.8,296.6a3.54,3.54,0,0,0-.43-.16,1.27,1.27,0,0,0-1.44.41l-1.09,3.79-.91-.27,1.53-5.32.89.25-.16.62a1.46,1.46,0,0,1,1.47-.35.88.88,0,0,1,.39.19Z"/><path class="cls-15" d="M118.79,298.54a3.24,3.24,0,0,1,.71-1.32,2.34,2.34,0,0,1,2.48-.7,2.36,2.36,0,0,1,1.55,1.26,3,3,0,0,1,.09,2.2l0,.06a3.22,3.22,0,0,1-.69,1.31,2.34,2.34,0,0,1-1.13.72,2.37,2.37,0,0,1-1.37,0,2.29,2.29,0,0,1-1.54-1.26,2.94,2.94,0,0,1-.1-2.18Zm.88.37a2.41,2.41,0,0,0,0,1.55,1.38,1.38,0,0,0,1,.85,1.36,1.36,0,0,0,1.26-.23,2.5,2.5,0,0,0,.84-1.41,2.38,2.38,0,0,0,0-1.54,1.39,1.39,0,0,0-1-.86,1.37,1.37,0,0,0-1.25.23A2.62,2.62,0,0,0,119.67,298.91Z"/><path class="cls-15" d="M126.39,297.9l-.16.67a2.05,2.05,0,0,1,1.81-.31c1.13.33,1.52,1.13,1.16,2.4l-1,3.52-.91-.26,1-3.53a1.27,1.27,0,0,0,0-.93,1.09,1.09,0,0,0-.72-.5,1.37,1.37,0,0,0-.85,0,1.64,1.64,0,0,0-.7.47l-1.09,3.8L124,303l1.53-5.33Z"/><path class="cls-15" d="M132.7,298.31l-.37,1.29,1,.29-.2.7-1-.29-.95,3.31a.77.77,0,0,0,0,.52.6.6,0,0,0,.41.29,2.67,2.67,0,0,0,.45.07l-.21.73a2.86,2.86,0,0,1-.73-.1,1.17,1.17,0,0,1-.81-.63,1.64,1.64,0,0,1,0-1.14l.95-3.31-1-.27.2-.71,1,.28.37-1.29Z"/><text class="cls-16" transform="translate(134.05 372.97)">2</text><text class="cls-16" transform="translate(245.05 333.97)">3</text><text class="cls-16" transform="translate(225.05 271.97)">5</text><text class="cls-16" transform="translate(132.05 252.97)">6</text><text class="cls-16" transform="translate(51.05 270.97)">7</text><path class="cls-1" d="M702.55,320.42c-43.37,0-83.31-11.77-104.24-30.72-8.28-7.49-13.07-15.61-14.25-24.14a29.61,29.61,0,0,1-.27-4c0-32.47,53.27-58.88,118.76-58.88S821.3,229.07,821.3,261.54a29.82,29.82,0,0,1-.38,4.71l0,.1c-1.38,8.48-6.37,16.55-14.83,24C785,308.89,745.31,320.42,702.55,320.42Z"/><path class="cls-2" d="M702.55,203.66c31.68,0,61.43,6.15,83.78,17.33,21.91,10.95,34,25.35,34,40.55a27.74,27.74,0,0,1-.37,4.55l0,.18h0c-1.36,8.22-6.24,16.06-14.49,23.32-20.92,18.4-60.33,29.83-102.86,29.83-43.13,0-82.81-11.67-103.56-30.46-8.11-7.33-12.8-15.25-13.94-23.54a29.17,29.17,0,0,1-.26-3.88c0-15.2,12.06-29.6,34-40.55,22.35-11.18,52.1-17.33,83.79-17.33m0-2c-66.14,0-119.76,26.81-119.76,59.88a30.39,30.39,0,0,0,.28,4.16c1.23,8.93,6.37,17.32,14.57,24.75,20.41,18.47,59.73,31,104.91,31,44.65,0,83.59-12.22,104.18-30.33,8.39-7.38,13.74-15.74,15.17-24.66h0a29.48,29.48,0,0,0,.4-4.88c0-33.07-53.62-59.88-119.75-59.88Z"/><path class="cls-3" d="M702.55,320.73c-42.8,0-82.27-11.65-103.4-30.48,21.29-18.43,60.48-29.84,102.68-29.84,42.8,0,82.26,11.65,103.4,30.48C783.94,309.32,744.75,320.73,702.55,320.73Z"/><path class="cls-2" d="M701.83,261.41c42,0,80.71,11.24,101.87,29.46-21.31,17.85-59.75,28.86-101.15,28.86-42,0-80.71-11.24-101.87-29.47,21.3-17.84,59.75-28.85,101.15-28.85m0-2c-44.65,0-83.59,12.42-104.19,30.83,20.41,18.78,59.73,31.49,104.91,31.49,44.65,0,83.59-12.42,104.18-30.83-20.4-18.78-59.72-31.49-104.9-31.49Z"/><line class="cls-4" x1="588.23" y1="339.73" x2="783.73" y2="277.23"/><polygon class="cls-5" points="561.65 349.44 574.97 345.06 575.59 346.94 587.85 339.64 573.64 341.04 574.26 342.92 560.94 347.3 561.65 349.44"/><line class="cls-4" x1="817.12" y1="335.82" x2="621.06" y2="275.09"/><polygon class="cls-5" points="844.47 343.08 831.04 339.05 831.61 337.14 817.37 336.11 829.82 343.1 830.39 341.2 843.82 345.24 844.47 343.08"/><line class="cls-6" x1="698.66" y1="379.47" x2="697.23" y2="206.73"/><polygon class="cls-5" points="700.18 398.52 700.02 389.14 701.34 389.12 699.1 379.83 697.18 389.19 698.51 389.17 698.67 398.55 700.18 398.52"/><line class="cls-6" x1="813.73" y1="299.23" x2="611.73" y2="307.23"/><path class="cls-7" d="M821.18,315.78a42.91,42.91,0,0,1-.81,11.52,35.85,35.85,0,0,1-3.9,9.43c-4,6.75-9.75,12.3-16,16.89-16.8,12.28-37.63,18.81-57.9,22.51a229.11,229.11,0,0,1-41,3.6c-66.14,0-119.4-25-119.4-58.09a54.39,54.39,0,0,1,.06-6.76l.58-49.32c1.23,8.93,6.37,17.33,14.57,24.75,11.79,10.66,29.88,19.34,51.77,24.77A230.75,230.75,0,0,0,755.75,315c21.29-5.33,39-13.73,50.68-24,8.39-7.38,13.74-15.74,15.17-24.66q-.26,21.6-.53,43.21C821.05,311.56,821.13,313.67,821.18,315.78Z"/><text class="cls-8" transform="translate(674.34 337.44)">VR</text><path class="cls-2" d="M740.38,302.45,698.6,316.61a.28.28,0,0,1-.37-.27l.15-22.08a.28.28,0,0,1,.19-.26l41.64-13.25a.28.28,0,0,1,.36.26v21.18A.28.28,0,0,1,740.38,302.45Z"/><polygon class="cls-12" points="740.57 280.63 698.38 294.06 681.23 268.73 721.98 255.73 740.57 280.63"/><polygon class="cls-13" points="665.24 305.74 698.38 316.26 698.38 294.06 681.26 268.63 665.24 285.9 665.24 305.74"/><line class="cls-14" x1="698.38" y1="294.06" x2="740.57" y2="280.63"/><polyline class="cls-14" points="698.73 316.23 740.57 302.39 740.57 280.63 721.98 255.73 681.73 268.23"/><path class="cls-15" d="M675.44,296.83l-3-.86-.91,3.17-.95-.28,2.06-7.17,4.44,1.28-.22.77-3.49-1-.71,2.46,3,.86Z"/><path class="cls-15" d="M679.75,296.62a2.52,2.52,0,0,0-.44-.17,1.26,1.26,0,0,0-1.44.42l-1.08,3.78-.91-.26,1.53-5.33.88.25-.16.62a1.5,1.5,0,0,1,1.48-.35,1,1,0,0,1,.38.19Z"/><path class="cls-15" d="M679.73,298.56a3.23,3.23,0,0,1,.71-1.32,2.36,2.36,0,0,1,1.14-.72,2.39,2.39,0,0,1,1.35,0,2.29,2.29,0,0,1,1.54,1.26,3,3,0,0,1,.1,2.19l0,.07a3.3,3.3,0,0,1-.7,1.31,2.33,2.33,0,0,1-2.5.69,2.3,2.3,0,0,1-1.54-1.25,3,3,0,0,1-.1-2.19Zm.88.37a2.37,2.37,0,0,0,0,1.54,1.44,1.44,0,0,0,2.2.62,2.57,2.57,0,0,0,.85-1.4,2.37,2.37,0,0,0,0-1.54,1.43,1.43,0,0,0-2.19-.64A2.62,2.62,0,0,0,680.61,298.93Z"/><path class="cls-15" d="M687.33,297.91l-.16.68a2,2,0,0,1,1.82-.31c1.12.32,1.51,1.12,1.15,2.39l-1,3.52-.91-.26,1-3.53a1.29,1.29,0,0,0,0-.92,1.12,1.12,0,0,0-.73-.51,1.45,1.45,0,0,0-.85,0,1.81,1.81,0,0,0-.7.47l-1.09,3.8-.91-.26,1.53-5.33Z"/><path class="cls-15" d="M693.64,298.32l-.37,1.29,1,.29-.2.7-1-.28-1,3.31a.74.74,0,0,0,0,.51.54.54,0,0,0,.4.29,1.63,1.63,0,0,0,.45.07l-.21.73a2.37,2.37,0,0,1-.72-.1,1.21,1.21,0,0,1-.82-.63,1.64,1.64,0,0,1,0-1.14l.95-3.3-1-.28.2-.71,1,.28.37-1.29Z"/><text class="cls-16" transform="translate(694.99 372.98)">2</text><text class="cls-16" transform="translate(805.99 333.98)">3</text><text class="cls-16" transform="translate(785.99 271.98)">5</text><text class="cls-16" transform="translate(692.99 252.98)">6</text><text class="cls-16" transform="translate(611.99 270.98)">7</text><g class="cls-17"><path class="cls-9" d="M306.94,210.28a2.87,2.87,0,0,0-1.83-2.1,3,3,0,0,0-2.76.4l.18-.31c1-1.55,2.06-3.09,3.08-4.64a2.12,2.12,0,0,0,.25-.47l1.77-5.24a.48.48,0,0,1,.14-.2,3.44,3.44,0,0,0,1.28-1.85,5.86,5.86,0,0,0-3.26-7.3,2.76,2.76,0,0,0-2.09-.19.38.38,0,0,1-.3-.06c-1.49-.73-3-1.5-4.46-2.2a7.59,7.59,0,0,0-1.59-.42c-1.47-.33-2.94-.64-4.42-.95a1.59,1.59,0,0,1-.32-.12,2.9,2.9,0,0,0,2.26-1.61,2.82,2.82,0,0,0-.16-2.78l.08-.06a1.15,1.15,0,0,1,.32.14l4.43,2.93a1.38,1.38,0,0,0,.29.17c1.71.58,3.39,1.27,5.13,1.72a8.55,8.55,0,0,0,9.77-4c.9-1.52,1.64-3.16,2.42-4.76a4.92,4.92,0,0,0,.28-1.16c.32-1.45.63-2.9.94-4.34a4,4,0,0,1,.13-.46c1,2.37,2.51,3,4.71,1.79l-.19.32-2.74,4.1a3.07,3.07,0,0,0-.23.39c-1.08,2.44-2.27,4.89-2.3,7.61a8.62,8.62,0,0,0,5,8.15c.66.35,1.35.65,2,1a14.43,14.43,0,0,0,4.46,1.55c1.13.21,2.26.46,3.39.7a1.69,1.69,0,0,1,.36.12,3,3,0,0,0-2.26,1.61,2.85,2.85,0,0,0,.16,2.78l-.07.06a1.08,1.08,0,0,1-.3-.11c-.67-.44-1.36-.86-2-1.34a19.16,19.16,0,0,0-6-3,12.51,12.51,0,0,0-3.91-.85,8.82,8.82,0,0,0-8.12,5c-.37.69-.68,1.41-1.06,2.08a14.33,14.33,0,0,0-1.53,4.39c-.19,1.06-.43,2.11-.66,3.17a1.7,1.7,0,0,1-.1.32Z"/><path class="cls-9" d="M304.76,193.45c-.37-1.16-.87-2.28-1.17-3.45-.24-1,.23-1.41,1.23-1.21a4.91,4.91,0,0,1,3.3,2.42,5.22,5.22,0,0,1,.29,4.94,3.42,3.42,0,0,1-.63.92.72.72,0,0,1-1.2,0,7.57,7.57,0,0,1-.74-1.13,12.22,12.22,0,0,1-.54-1.16c-.19-.44-.36-.88-.54-1.32Z"/><path class="cls-10" d="M334.65,197.54,333.3,197a14.06,14.06,0,0,1,1.14-3.73c1.3-2.44,2.57-4.88,3.85-7.33.15-.28.33-.5.68-.37s.33.43.25.73c-.83,3.06-1.67,6.12-2.5,9.18a.63.63,0,0,1-.14.27Z"/><path class="cls-10" d="M293.72,180.51l-1.21-.57a14,14,0,0,1,1-3.41c1.35-2.61,2.72-5.22,4.09-7.84a.48.48,0,0,1,.64-.29c.31.12.34.37.26.66L296.85,175c-.29,1.07-.57,2.13-.87,3.2a1,1,0,0,1-.25.45C295.06,179.29,294.37,179.91,293.72,180.51Z"/><path class="cls-10" d="M320,168.78l-.46,1.23c-.91,0-1.87.07-2.83.08a.86.86,0,0,1-.41-.15l-8.08-4.75c-.38-.23-.49-.45-.35-.72s.42-.31.71-.21l5.38,1.73c.51.17,1,.35,1.54.5A13.22,13.22,0,0,1,320,168.78Z"/><path class="cls-10" d="M322.82,171.39l.65-1.38,2.63-.07a.82.82,0,0,1,.34.14l8.11,4.77.13.08a.46.46,0,0,1,.21.61.45.45,0,0,1-.62.26c-2.88-1-5.79-1.84-8.64-2.87A18.16,18.16,0,0,1,322.82,171.39Z"/><path class="cls-10" d="M302.69,209.46l-.54,1.17.22.14a10.53,10.53,0,0,0-1.26,0,4.6,4.6,0,0,1-3.28-.82c-2.25-1.41-4.57-2.72-6.86-4.07-.26-.15-.45-.35-.32-.67s.41-.34.72-.24c2.64.87,5.27,1.73,7.91,2.57A14.23,14.23,0,0,1,302.69,209.46Z"/><path class="cls-10" d="M290.9,183.26l1.34.54a13.46,13.46,0,0,1-1.12,3.67q-2,3.69-3.88,7.4c-.16.29-.35.48-.69.33s-.31-.4-.23-.7c.83-3,1.65-6.08,2.49-9.11a.85.85,0,0,1,.2-.39C289.69,184.35,290.39,183.72,290.9,183.26Z"/><path class="cls-10" d="M305.54,212.1l.49-1.31a13.56,13.56,0,0,0,1.38-.07,4.16,4.16,0,0,1,2.89.72c2.33,1.44,4.71,2.78,7.06,4.18a.82.82,0,0,1,.37.5c.06.36-.29.56-.71.42l-3.48-1.12c-1.7-.56-3.43-1.06-5.09-1.73A25.4,25.4,0,0,1,305.54,212.1Z"/><path class="cls-10" d="M331.86,200.26a5.87,5.87,0,0,0,.59.36,5.14,5.14,0,0,0,.59.19,14.42,14.42,0,0,1-1.21,4c-1.29,2.43-2.56,4.87-3.84,7.3-.14.28-.34.45-.66.32s-.33-.39-.25-.69q1.25-4.57,2.5-9.14a.91.91,0,0,1,.23-.42C330.48,201.51,331.17,200.89,331.86,200.26Z"/><path class="cls-9" d="M321.84,171.18a1.23,1.23,0,0,1-1.65-.73,1.24,1.24,0,0,1,.72-1.66,1.3,1.3,0,0,1,1.67.73A1.28,1.28,0,0,1,321.84,171.18Z"/><path class="cls-9" d="M292.83,183a1.28,1.28,0,0,1-1.67-.73,1.29,1.29,0,0,1,2.39-.95A1.27,1.27,0,0,1,292.83,183Z"/><path class="cls-9" d="M332,199.46a1.28,1.28,0,0,1,2.39-.94,1.3,1.3,0,0,1-.72,1.68A1.29,1.29,0,0,1,332,199.46Z"/><path class="cls-9" d="M303,211.26a1.27,1.27,0,0,1,.73-1.64,1.25,1.25,0,0,1,1.66.72,1.28,1.28,0,0,1-.72,1.67A1.3,1.3,0,0,1,303,211.26Z"/><path class="cls-9" d="M319.76,168a2.52,2.52,0,0,1,2.7-.32,2.43,2.43,0,0,1,1.42,1.76c-.6.16-.68.13-1-.35a1.65,1.65,0,0,0-2-.79C320.42,168.5,320.13,168.29,319.76,168Z"/><path class="cls-9" d="M290.19,183.16a2.57,2.57,0,0,1,1.95-3.91c-.09.43-.09.79-.59,1a1.66,1.66,0,0,0-.91,2C290.77,182.78,290.75,182.82,290.19,183.16Z"/><path class="cls-9" d="M335.35,197.63a2.56,2.56,0,0,1-1.94,3.91c.07-.44.11-.79.61-1a1.65,1.65,0,0,0,.89-1.95C334.77,198,334.77,198,335.35,197.63Z"/><path class="cls-9" d="M305.78,212.79a2.58,2.58,0,0,1-4.12-1.42c.55-.19.7-.14,1,.32a1.65,1.65,0,0,0,2,.81A1,1,0,0,1,305.78,212.79Z"/><path class="cls-9" d="M332.88,196.46a1.06,1.06,0,0,1-.59,1,1.68,1.68,0,0,0-.84,1.92c.11.53.09.58-.46.91a2.56,2.56,0,0,1,1.89-3.85Z"/><path class="cls-9" d="M292.66,184.34a1.07,1.07,0,0,1,.59-1,1.66,1.66,0,0,0,.84-1.92c-.11-.54-.1-.57.46-.91a2.43,2.43,0,0,1,.18,2.25A2.52,2.52,0,0,1,292.66,184.34Z"/><path class="cls-9" d="M302.57,208.8a2.53,2.53,0,0,1,2.59-.34,2.47,2.47,0,0,1,1.49,1.75c-.61.16-.67.13-1-.32a1.69,1.69,0,0,0-2-.78C303.17,209.29,303,209,302.57,208.8Z"/><path class="cls-9" d="M322.92,172a2.53,2.53,0,0,1-4-1.41c.48-.19.67-.13.93.28a1.67,1.67,0,0,0,2,.82A1,1,0,0,1,322.92,172Z"/><path class="cls-9" d="M336,198.62l.29.15c.5.27.54.37.34.89s-.37.88-.55,1.32-.32.54-.84.39a3.19,3.19,0,0,1-.34-.11A3,3,0,0,0,336,198.62Z"/><path class="cls-9" d="M290.69,179.53a2.94,2.94,0,0,0-1.12,2.65l-.44-.24a.45.45,0,0,1-.24-.65l.69-1.66a.43.43,0,0,1,.56-.25C290.3,179.41,290.47,179.47,290.69,179.53Z"/><path class="cls-9" d="M301.91,212.49a2.87,2.87,0,0,0,2.56,1.11c-.16.72-.42.86-1.07.59l-1.17-.5c-.54-.23-.6-.36-.42-.92C301.83,212.69,301.87,212.61,301.91,212.49Z"/><path class="cls-9" d="M323.64,168.32a2.88,2.88,0,0,0-2.59-1.12c.25-.76.43-.86,1.11-.58.4.16.78.33,1.17.5s.57.33.42.85Z"/><path class="cls-11" d="M295,187.92a.59.59,0,0,1,.65.12.5.5,0,0,1,.11.58c-.19.53-.4,1.06-.54,1.61a11.16,11.16,0,0,0,2.51,10.28,10.7,10.7,0,0,0,3.87,2.78.52.52,0,1,1-.4,1,12.45,12.45,0,0,1-3.53-2.33,12.6,12.6,0,0,1-3-4.41,11.75,11.75,0,0,1-.85-4.43,12.24,12.24,0,0,1,.94-4.78A2.2,2.2,0,0,1,295,187.92Z"/><path class="cls-11" d="M297.86,196.29a8,8,0,0,1-.45-4.09,16,16,0,0,1,.54-2,.49.49,0,0,1,.7-.28.5.5,0,0,1,.26.69,6.85,6.85,0,0,0,.45,6.3,6.67,6.67,0,0,0,3,2.72l.17.08a.48.48,0,0,1,.26.67.46.46,0,0,1-.67.27,15.36,15.36,0,0,1-1.71-1,7,7,0,0,1-1.92-2.1C298.28,197.11,298.08,196.7,297.86,196.29Z"/><path class="cls-11" d="M304,197.77a1.68,1.68,0,0,1-.4-.06,4.87,4.87,0,0,1-2.89-3.77,4.71,4.71,0,0,1,.28-2.57c.15-.39.37-.51.71-.38a.53.53,0,0,1,.27.75,3.87,3.87,0,0,0,.66,4,3.72,3.72,0,0,0,1.36,1,.49.49,0,0,1,.26.72A1.56,1.56,0,0,1,304,197.77Z"/><path class="cls-2" d="M306,191.68a1.34,1.34,0,0,1,1.74.76,1.32,1.32,0,0,1-.76,1.72,1.33,1.33,0,1,1-1-2.48Zm.8,2a.84.84,0,1,0-1.08-.45A.83.83,0,0,0,306.84,193.7Z"/><path class="cls-2" d="M308.18,193.59a.33.33,0,0,1,.43.19.33.33,0,1,1-.43-.19Z"/></g><g class="cls-17"><path class="cls-9" d="M304.18,282.38a2.89,2.89,0,0,0-1.46-2.37,3.07,3.07,0,0,0-2.8-.05c.08-.09.15-.19.24-.28l3.78-4.08a2.12,2.12,0,0,0,.32-.42c.87-1.63,1.73-3.26,2.6-4.88a.35.35,0,0,1,.16-.18,3.45,3.45,0,0,0,1.57-1.63,5.86,5.86,0,0,0-2-7.73,2.73,2.73,0,0,0-2-.51.47.47,0,0,1-.3-.11c-1.34-1-2.67-2-4-2.89a7.83,7.83,0,0,0-1.5-.68l-4.21-1.65a1.1,1.1,0,0,1-.3-.16,2.93,2.93,0,0,0,2.49-1.23,2.81,2.81,0,0,0,.29-2.76l.09-.06a3,3,0,0,1,.3.19l3.89,3.61a1.33,1.33,0,0,0,.26.21c1.59.86,3.15,1.8,4.79,2.54a8.55,8.55,0,0,0,10.28-2.39c1.15-1.36,2.13-2.85,3.16-4.31a5.13,5.13,0,0,0,.47-1.1l1.62-4.14c0-.1.1-.2.21-.42.58,2.49,2,3.31,4.35,2.52l-.24.29-3.36,3.6a2.45,2.45,0,0,0-.29.35c-1.46,2.24-3,4.46-3.5,7.14a8.63,8.63,0,0,0,3.58,8.84c.6.45,1.24.86,1.82,1.33a14.47,14.47,0,0,0,4.16,2.25c1.08.39,2.15.82,3.23,1.24a1.25,1.25,0,0,1,.34.18,3,3,0,0,0-2.49,1.22,2.83,2.83,0,0,0-.29,2.77l-.09.05a1.48,1.48,0,0,1-.27-.16c-.59-.54-1.2-1.06-1.75-1.64a19.1,19.1,0,0,0-5.46-3.89,12.7,12.7,0,0,0-3.72-1.48,8.83,8.83,0,0,0-8.82,3.58c-.47.62-.89,1.28-1.38,1.89a14.17,14.17,0,0,0-2.21,4.08c-.37,1-.77,2-1.17,3,0,.11-.1.2-.15.31Z"/><path class="cls-9" d="M304.74,265.42c-.18-1.2-.49-2.39-.59-3.59-.09-1,.45-1.36,1.41-1a4.87,4.87,0,0,1,2.85,2.92,5.15,5.15,0,0,1-.51,4.92,3,3,0,0,1-.77.81.72.72,0,0,1-1.18-.21,7.52,7.52,0,0,1-.54-1.23,10.73,10.73,0,0,1-.35-1.23c-.12-.46-.21-.93-.32-1.39Z"/><path class="cls-10" d="M333.58,274.27l-1.25-.74a14.16,14.16,0,0,1,1.73-3.49q2.51-3.3,5-6.62c.2-.25.41-.44.73-.25s.26.47.13.75L336,272.59a.52.52,0,0,1-.18.23C335,273.36,334.17,273.89,333.58,274.27Z"/><path class="cls-10" d="M295.93,250.86l-1.1-.75a13.9,13.9,0,0,1,1.5-3.2c1.76-2.37,3.54-4.72,5.3-7.08a.49.49,0,0,1,.69-.19c.28.17.27.42.15.69-.86,1.87-1.71,3.75-2.56,5.62-.46,1-.91,2-1.38,3a1.14,1.14,0,0,1-.31.41Z"/><path class="cls-10" d="M323.73,243.52l-.66,1.15c-.89-.12-1.85-.24-2.8-.38a.92.92,0,0,1-.38-.22l-7.21-6c-.33-.28-.41-.52-.23-.76s.47-.24.74-.1l5,2.58c.48.24,1,.51,1.44.73A13.33,13.33,0,0,1,323.73,243.52Z"/><path class="cls-10" d="M326.12,246.56l.86-1.26,2.61.36a.64.64,0,0,1,.31.19l7.24,6,.11.09a.47.47,0,0,1,.12.64.46.46,0,0,1-.66.16c-2.69-1.4-5.42-2.75-8.07-4.23A17.91,17.91,0,0,1,326.12,246.56Z"/><path class="cls-10" d="M300.12,280.89,299.4,282l.19.17a10.62,10.62,0,0,0-1.25-.14,4.58,4.58,0,0,1-3.1-1.34c-2-1.76-4.07-3.43-6.12-5.13-.23-.19-.39-.41-.21-.71s.46-.27.75-.12q3.69,1.92,7.4,3.81A14.4,14.4,0,0,1,300.12,280.89Z"/><path class="cls-10" d="M292.7,253.12l1.24.76a13.85,13.85,0,0,1-1.69,3.44c-1.69,2.22-3.36,4.45-5,6.68-.2.26-.42.42-.73.22s-.24-.46-.12-.74l3.93-8.59a.77.77,0,0,1,.26-.35C291.33,254,292.12,253.5,292.7,253.12Z"/><path class="cls-10" d="M302.51,284l.69-1.21a13.35,13.35,0,0,0,1.37.15,4.14,4.14,0,0,1,2.74,1.18c2.06,1.79,4.2,3.5,6.29,5.26a.85.85,0,0,1,.29.56c0,.36-.38.49-.77.3l-3.25-1.67c-1.59-.83-3.22-1.61-4.75-2.53A24,24,0,0,1,302.51,284Z"/><path class="cls-10" d="M330.39,276.51c.2.17.35.32.52.44a3.25,3.25,0,0,0,.56.29,14.83,14.83,0,0,1-1.84,3.72c-1.66,2.19-3.31,4.39-5,6.58-.19.25-.41.39-.71.21s-.26-.44-.13-.72q2-4.3,3.94-8.62a1,1,0,0,1,.29-.38Z"/><path class="cls-9" d="M325.19,246.19a1.23,1.23,0,0,1-1.51-1,1.25,1.25,0,0,1,1-1.53,1.29,1.29,0,0,1,1.52,1A1.25,1.25,0,0,1,325.19,246.19Z"/><path class="cls-9" d="M294.66,253.17a1.26,1.26,0,0,1-1.53-1,1.28,1.28,0,1,1,1.53,1Z"/><path class="cls-9" d="M330.65,275.74a1.28,1.28,0,1,1,1.52,1A1.27,1.27,0,0,1,330.65,275.74Z"/><path class="cls-9" d="M300.1,282.71a1.28,1.28,0,0,1,2.51-.53,1.28,1.28,0,1,1-2.51.53Z"/><path class="cls-9" d="M323.65,242.72a2.5,2.5,0,0,1,2.71.12,2.4,2.4,0,0,1,1.12,2c-.62.06-.7,0-.9-.5a1.65,1.65,0,0,0-1.84-1.11C324.22,243.32,324,243.07,323.65,242.72Z"/><path class="cls-9" d="M292,252.91a2.46,2.46,0,0,1,.23-2.39,2.49,2.49,0,0,1,2.33-1.15c-.16.41-.23.77-.75.89a1.66,1.66,0,0,0-1.22,1.8C292.66,252.63,292.63,252.67,292,252.91Z"/><path class="cls-9" d="M334.26,274.48a2.57,2.57,0,0,1-2.55,3.55c.14-.43.24-.77.77-.9a1.65,1.65,0,0,0,1.19-1.78C333.62,274.75,333.63,274.75,334.26,274.48Z"/><path class="cls-9" d="M302.63,284.67a2.57,2.57,0,0,1-3.83-2.07c.57-.09.7,0,.89.48a1.65,1.65,0,0,0,1.83,1.12A1,1,0,0,1,302.63,284.67Z"/><path class="cls-9" d="M332,272.92a1.08,1.08,0,0,1-.75.92,1.66,1.66,0,0,0-1.13,1.76c0,.54,0,.58-.61.82a2.47,2.47,0,0,1,.22-2.3A2.5,2.5,0,0,1,332,272.92Z"/><path class="cls-9" d="M294.27,254.48c.12-.45.26-.76.74-.91a1.69,1.69,0,0,0,1.15-1.76c0-.56,0-.58.6-.83a2.45,2.45,0,0,1-.19,2.25A2.51,2.51,0,0,1,294.27,254.48Z"/><path class="cls-9" d="M300.11,280.22a2.52,2.52,0,0,1,2.6.07,2.47,2.47,0,0,1,1.2,2c-.63.06-.69,0-.9-.47a1.7,1.7,0,0,0-1.86-1.09C300.62,280.8,300.45,280.46,300.11,280.22Z"/><path class="cls-9" d="M326.12,247.18a2.52,2.52,0,0,1-3.73-2c.5-.11.68,0,.87.43a1.68,1.68,0,0,0,1.81,1.12A1.05,1.05,0,0,1,326.12,247.18Z"/><path class="cls-9" d="M334.71,275.55c.12.1.2.14.26.2.45.34.48.45.19.93s-.5.81-.75,1.21-.4.48-.89.26l-.33-.17A2.92,2.92,0,0,0,334.71,275.55Z"/><path class="cls-9" d="M293.1,249.41a2.94,2.94,0,0,0-1.53,2.44l-.39-.31a.45.45,0,0,1-.14-.68c.31-.51.63-1,.95-1.53a.43.43,0,0,1,.59-.16Z"/><path class="cls-9" d="M298.86,283.75a2.88,2.88,0,0,0,2.35,1.51c-.28.68-.55.78-1.15.41L299,285c-.49-.31-.53-.44-.26-1A2.36,2.36,0,0,1,298.86,283.75Z"/><path class="cls-9" d="M327.42,243.66a2.87,2.87,0,0,0-2.37-1.52c.37-.71.56-.78,1.19-.4l1.08.68c.47.3.5.42.27.92C327.55,243.43,327.5,243.51,327.42,243.66Z"/><path class="cls-11" d="M296,258.38a.62.62,0,0,1,.63.22.51.51,0,0,1,0,.59c-.26.5-.56,1-.79,1.51a11.16,11.16,0,0,0,4.2,13.92.49.49,0,0,1,.16.73.47.47,0,0,1-.71.15,12.11,12.11,0,0,1-3.11-2.86,12.53,12.53,0,0,1-2.26-4.83,11.85,11.85,0,0,1-.13-4.52,12.23,12.23,0,0,1,1.7-4.56A2.25,2.25,0,0,1,296,258.38Z"/><path class="cls-11" d="M297.48,267.11a7.85,7.85,0,0,1,.21-4.11,15.65,15.65,0,0,1,.86-1.92.49.49,0,0,1,.74-.16.5.5,0,0,1,.14.72,6.87,6.87,0,0,0-.57,6.3,6.7,6.7,0,0,0,2.55,3.16l.16.12a.51.51,0,0,1-.56.86,15.71,15.71,0,0,1-1.53-1.28,7,7,0,0,1-1.55-2.38C297.76,268,297.63,267.55,297.48,267.11Z"/><path class="cls-11" d="M303.28,269.56a2,2,0,0,1-.39-.13,4.84,4.84,0,0,1-2.24-4.18,4.69,4.69,0,0,1,.69-2.5c.21-.36.45-.43.76-.25a.53.53,0,0,1,.14.78,3.89,3.89,0,0,0,0,4,3.78,3.78,0,0,0,1.18,1.24.49.49,0,0,1,.14.75A1.45,1.45,0,0,1,303.28,269.56Z"/><path class="cls-2" d="M306.29,263.88a1.34,1.34,0,1,1-1,1.61A1.33,1.33,0,0,1,306.29,263.88Zm.46,2.12a.83.83,0,0,0,.64-1,.82.82,0,0,0-1-.62.84.84,0,0,0-.65,1A.82.82,0,0,0,306.75,266Z"/><path class="cls-2" d="M308.1,266.11a.34.34,0,0,1,.39.25.33.33,0,1,1-.65.14A.33.33,0,0,1,308.1,266.11Z"/></g><line class="cls-18" x1="142.67" y1="278.21" x2="146.88" y2="273.93"/><line class="cls-19" x1="155.67" y1="265" x2="291.93" y2="126.57"/><line class="cls-18" x1="296.33" y1="122.11" x2="300.54" y2="117.83"/><g class="cls-17"><line class="cls-18" x1="146.88" y1="273.93" x2="152.21" y2="271.17"/><line class="cls-20" x1="162.76" y1="265.72" x2="284.02" y2="203.01"/><line class="cls-18" x1="289.29" y1="200.28" x2="294.62" y2="197.52"/></g><g class="cls-17"><line class="cls-18" x1="146.88" y1="273.93" x2="152.88" y2="273.66"/><line class="cls-21" x1="165.27" y1="273.1" x2="282.94" y2="267.85"/><line class="cls-18" x1="289.13" y1="267.57" x2="295.12" y2="267.3"/></g><text class="cls-22" transform="translate(358.17 103.41)">H4: 40m</text><text class="cls-22" transform="translate(358.17 199.84)">H2: 20m</text><text class="cls-22" transform="translate(358.17 269.78)">H1: 10m</text><path class="cls-9" d="M723.91,38.13a2.86,2.86,0,0,0-2.54,1.12,3,3,0,0,0-.45,2.75l-.24-.27-3.51-4.32a1.85,1.85,0,0,0-.37-.37l-4.47-3.26a.45.45,0,0,1-.15-.19,3.42,3.42,0,0,0-1.39-1.78,5.86,5.86,0,0,0-7.94.93,2.78,2.78,0,0,0-.79,1.94.43.43,0,0,1-.16.27c-1.14,1.2-2.31,2.37-3.43,3.59a8.28,8.28,0,0,0-.88,1.4c-.75,1.3-1.48,2.62-2.23,3.93a1.17,1.17,0,0,1-.2.27,2.94,2.94,0,0,0-.86-2.64,2.83,2.83,0,0,0-2.7-.67l0-.1a3,3,0,0,1,.23-.27l4.12-3.34a1.79,1.79,0,0,0,.25-.23c1.07-1.46,2.22-2.86,3.18-4.38A8.55,8.55,0,0,0,698.43,22c-1.19-1.32-2.53-2.51-3.82-3.73a4.86,4.86,0,0,0-1-.62l-3.86-2.19-.39-.27c2.54-.22,3.56-1.51,3.11-3.95.09.1.17.18.25.28l3.09,3.83a3.31,3.31,0,0,0,.3.34c2,1.76,4,3.63,6.58,4.47a8.6,8.6,0,0,0,9.25-2.3c.54-.53,1-1.1,1.58-1.61a14.15,14.15,0,0,0,2.81-3.8c.54-1,1.12-2,1.69-3a1.26,1.26,0,0,1,.22-.31,3,3,0,0,0,.86,2.63,2.84,2.84,0,0,0,2.7.68l0,.09a2.35,2.35,0,0,1-.19.25c-.63.51-1.23,1-1.88,1.51a19,19,0,0,0-4.62,4.85,12.67,12.67,0,0,0-2,3.48,8.81,8.81,0,0,0,2.31,9.23c.54.56,1.13,1.07,1.67,1.63a14.1,14.1,0,0,0,3.73,2.77c.95.5,1.88,1.05,2.82,1.58a1.73,1.73,0,0,1,.28.19Z"/><path class="cls-9" d="M707.2,35.18c-1.21,0-2.43.16-3.64.08-1-.06-1.27-.64-.78-1.53a4.87,4.87,0,0,1,3.29-2.42,5.18,5.18,0,0,1,4.8,1.2,3.13,3.13,0,0,1,.69.88.71.71,0,0,1-.37,1.13,6.44,6.44,0,0,1-1.3.37,10.6,10.6,0,0,1-1.26.17l-1.43.12Z"/><path class="cls-10" d="M720,7.88,719.12,9a14.36,14.36,0,0,1-3.21-2.2C714,4.84,712,2.89,710.07.94c-.23-.22-.38-.46-.15-.75s.5-.2.77,0l8,5.14a.51.51,0,0,1,.21.2C719.33,6.37,719.74,7.24,720,7.88Z"/><path class="cls-10" d="M691.55,41.85l-.9,1a14.51,14.51,0,0,1-3-1.94l-6.26-6.25a.5.5,0,0,1-.09-.71.49.49,0,0,1,.71,0l5.2,3.33c.93.59,1.86,1.18,2.78,1.79a1,1,0,0,1,.36.37C690.8,40.21,691.18,41.05,691.55,41.85Z"/><path class="cls-10" d="M688.21,13.3l1,.81c-.25.87-.5,1.79-.77,2.71a.92.92,0,0,1-.27.35l-7,6.29c-.33.3-.57.34-.79.12s-.17-.49,0-.74c1.09-1.53,2.17-3.07,3.26-4.61.31-.44.64-.87.93-1.32A13.23,13.23,0,0,1,688.21,13.3Z"/><path class="cls-10" d="M691.55,11.35l-1.12-1c.18-.67.44-1.6.72-2.54a.75.75,0,0,1,.23-.28l7-6.31.11-.1a.47.47,0,0,1,.65,0,.46.46,0,0,1,.06.67c-1.77,2.47-3.48,5-5.32,7.4A18.24,18.24,0,0,1,691.55,11.35Z"/><path class="cls-10" d="M721.87,41.94l1,.86.2-.16a12.15,12.15,0,0,0-.33,1.22,4.58,4.58,0,0,1-1.76,2.88c-2,1.73-4,3.55-5.93,5.33-.23.21-.47.33-.74.11s-.2-.49,0-.76q2.41-3.39,4.82-6.79A14.42,14.42,0,0,1,721.87,41.94Z"/><path class="cls-10" d="M693.34,45.37l.92-1.13a13.89,13.89,0,0,1,3.17,2.17q2.94,3,5.89,5.92c.24.23.36.47.12.75s-.49.18-.74,0l-8-5.09a.92.92,0,0,1-.31-.31C694,46.85,693.63,46,693.34,45.37Z"/><path class="cls-10" d="M725.24,40l-1.1-.86c.1-.4.26-.86.34-1.34A4.11,4.11,0,0,1,726,35.27c2.07-1.79,4.06-3.66,6.1-5.49a.89.89,0,0,1,.59-.21c.36.06.44.46.19.81-.7,1-1.4,2-2.11,3-1,1.46-2,3-3.17,4.35A25.81,25.81,0,0,1,725.24,40Z"/><path class="cls-10" d="M721.8,11.35a6.26,6.26,0,0,0,.52-.45,4.5,4.5,0,0,0,.36-.51,14.81,14.81,0,0,1,3.42,2.34c1.93,1.95,3.88,3.9,5.82,5.84.22.22.33.46.11.73s-.48.2-.74,0l-8-5.12a1,1,0,0,1-.33-.35C722.58,13,722.19,12.2,721.8,11.35Z"/><path class="cls-9" d="M691.06,12.23a1.28,1.28,0,0,1-2.56.17,1.28,1.28,0,1,1,2.56-.17Z"/><path class="cls-9" d="M693.65,43.44a1.25,1.25,0,0,1-1.19,1.37,1.28,1.28,0,0,1-.19-2.55A1.25,1.25,0,0,1,693.65,43.44Z"/><path class="cls-9" d="M721.08,11a1.26,1.26,0,0,1-1.36-1.21,1.27,1.27,0,0,1,1.17-1.35,1.28,1.28,0,1,1,.19,2.56Z"/><path class="cls-9" d="M723.67,42.22A1.26,1.26,0,0,1,722.32,41a1.25,1.25,0,0,1,1.18-1.38,1.28,1.28,0,1,1,.17,2.56Z"/><path class="cls-9" d="M687.4,13.26a2.52,2.52,0,0,1,.5-2.67A2.45,2.45,0,0,1,690,9.76c0,.63-.08.69-.63.82A1.66,1.66,0,0,0,688,12.25C688.07,12.78,687.79,13,687.4,13.26Z"/><path class="cls-9" d="M693,46a2.44,2.44,0,0,1-2.33-.56,2.49,2.49,0,0,1-.82-2.47c.39.22.73.33.77.86a1.65,1.65,0,0,0,1.62,1.46C692.84,45.34,692.88,45.37,693,46Z"/><path class="cls-9" d="M720.33,7.24a2.51,2.51,0,0,1,2.4.6,2.48,2.48,0,0,1,.76,2.42c-.4-.2-.73-.35-.78-.88a1.65,1.65,0,0,0-1.59-1.44C720.52,7.9,720.52,7.9,720.33,7.24Z"/><path class="cls-9" d="M726,40a2.58,2.58,0,0,1-2.59,3.5c0-.58.08-.7.59-.82A1.64,1.64,0,0,0,725.34,41C725.3,40.49,725.57,40.25,726,40Z"/><path class="cls-9" d="M718.48,9.24a1.08,1.08,0,0,1,.8.88,1.67,1.67,0,0,0,1.58,1.37c.54,0,.58.09.73.71a2.43,2.43,0,0,1-2.24-.54A2.47,2.47,0,0,1,718.48,9.24Z"/><path class="cls-9" d="M694.89,44c-.42-.19-.71-.37-.79-.87a1.68,1.68,0,0,0-1.58-1.38c-.55,0-.57-.07-.74-.71a2.44,2.44,0,0,1,2.21.5A2.52,2.52,0,0,1,694.89,44Z"/><path class="cls-9" d="M721.2,41.86a2.52,2.52,0,0,1,.45-2.57,2.44,2.44,0,0,1,2.11-.91c0,.63-.07.69-.59.83a1.68,1.68,0,0,0-1.34,1.68C721.85,41.43,721.49,41.55,721.2,41.86Z"/><path class="cls-9" d="M692.17,11.44a2.53,2.53,0,0,1-2.54,3.41c0-.51.07-.68.54-.8a1.68,1.68,0,0,0,1.37-1.63A1,1,0,0,1,692.17,11.44Z"/><path class="cls-9" d="M721.46,7a2.65,2.65,0,0,1,.24-.24c.4-.39.51-.41.95-.06s.72.62,1.09.92.42.47.12.92l-.21.3A2.88,2.88,0,0,0,721.46,7Z"/><path class="cls-9" d="M689.72,44.45a2.94,2.94,0,0,0,2.19,1.86l-.36.34a.44.44,0,0,1-.69.05l-1.38-1.16a.44.44,0,0,1-.08-.61C689.49,44.78,689.59,44.65,689.72,44.45Z"/><path class="cls-9" d="M724.52,43.59a2.87,2.87,0,0,0,1.83-2.12c.63.38.69.66.24,1.21l-.83,1c-.38.44-.51.46-1,.12Z"/><path class="cls-9" d="M688.86,9.66A2.89,2.89,0,0,0,687,11.79c-.65-.46-.69-.67-.22-1.23.27-.33.55-.65.83-1s.48-.44.94-.14Z"/><path class="cls-11" d="M699,42.88a.6.6,0,0,1,.31-.59.5.5,0,0,1,.58.08c.46.34.9.69,1.38,1a11.18,11.18,0,0,0,14.38-2.19.52.52,0,1,1,.79.67,12.34,12.34,0,0,1-8.38,4.23,11.54,11.54,0,0,1-4.48-.51,11.92,11.92,0,0,1-4.28-2.33A2.17,2.17,0,0,1,699,42.88Z"/><path class="cls-11" d="M707.85,42.61a7.82,7.82,0,0,1-4-.79A16.45,16.45,0,0,1,702,40.7.48.48,0,0,1,702,40a.5.5,0,0,1,.74,0,6.86,6.86,0,0,0,6.15,1.45,6.69,6.69,0,0,0,3.49-2.08l.14-.14a.48.48,0,0,1,.71,0,.47.47,0,0,1,.06.73,16.92,16.92,0,0,1-1.48,1.33,6.94,6.94,0,0,1-2.58,1.2C708.77,42.46,708.31,42.53,707.85,42.61Z"/><path class="cls-11" d="M711.1,37.22a1.75,1.75,0,0,1-.19.36,4.85,4.85,0,0,1-4.45,1.63,4.68,4.68,0,0,1-2.38-1c-.32-.27-.36-.51-.14-.79a.53.53,0,0,1,.79,0,3.87,3.87,0,0,0,4,.56,3.59,3.59,0,0,0,1.39-1,.5.5,0,0,1,.77,0A1.91,1.91,0,0,1,711.1,37.22Z"/><path class="cls-2" d="M705.9,33.44a1.33,1.33,0,1,1,1.46,1.22A1.33,1.33,0,0,1,705.9,33.44Zm2.17-.17a.84.84,0,0,0-1.68.11.84.84,0,1,0,1.68-.11Z"/><path class="cls-2" d="M708.36,32a.33.33,0,0,1,.31-.35.32.32,0,0,1,.35.3.33.33,0,0,1-.31.36A.34.34,0,0,1,708.36,32Z"/><g class="cls-17"><path class="cls-9" d="M724.14,126.61a2.88,2.88,0,0,0-2.61,1,3,3,0,0,0-.61,2.72,3.11,3.11,0,0,1-.23-.28l-3.23-4.53a1.93,1.93,0,0,0-.35-.4l-4.26-3.53a.41.41,0,0,1-.14-.2,3.46,3.46,0,0,0-1.27-1.86,5.87,5.87,0,0,0-8,.44,2.81,2.81,0,0,0-.91,1.88.45.45,0,0,1-.17.27c-1.21,1.12-2.46,2.22-3.65,3.37a7.59,7.59,0,0,0-1,1.34c-.83,1.26-1.64,2.52-2.47,3.78a.9.9,0,0,1-.22.27,2.93,2.93,0,0,0-.69-2.69,2.85,2.85,0,0,0-2.66-.84l0-.1a1.18,1.18,0,0,1,.25-.25l4.31-3.09a1.39,1.39,0,0,0,.27-.21c1.15-1.39,2.39-2.72,3.44-4.18a8.53,8.53,0,0,0-.25-10.55c-1.11-1.39-2.37-2.66-3.59-4a5,5,0,0,0-1-.69l-3.72-2.42c-.09-.06-.18-.14-.37-.29,2.56-.06,3.65-1.29,3.35-3.75.08.1.16.19.23.29l2.85,4c.09.12.18.25.28.36,1.9,1.88,3.76,3.86,6.29,4.87a8.64,8.64,0,0,0,9.38-1.73c.57-.49,1.1-1,1.68-1.51a14.42,14.42,0,0,0,3-3.62c.61-1,1.25-1.94,1.87-2.91a2.1,2.1,0,0,1,.24-.3,3,3,0,0,0,.7,2.69,2.84,2.84,0,0,0,2.65.84l0,.09a1.64,1.64,0,0,1-.21.24c-.65.47-1.29,1-2,1.39a18.85,18.85,0,0,0-4.91,4.56,12.81,12.81,0,0,0-2.2,3.34,8.83,8.83,0,0,0,1.73,9.36c.51.59,1.07,1.13,1.57,1.73a14.19,14.19,0,0,0,3.55,3c.92.56,1.82,1.16,2.72,1.74l.27.21Z"/><path class="cls-9" d="M707.65,122.64c-1.22-.07-2.44,0-3.64-.15-1-.12-1.23-.71-.69-1.58a4.88,4.88,0,0,1,3.44-2.21,5.15,5.15,0,0,1,4.71,1.5,3.06,3.06,0,0,1,.64.91.73.73,0,0,1-.44,1.12,7.38,7.38,0,0,1-1.32.28c-.42.06-.85.08-1.27.1l-1.43,0S707.65,122.61,707.65,122.64Z"/><path class="cls-10" d="M722.15,96.18l-1,1.07a14.69,14.69,0,0,1-3.07-2.39c-1.81-2.09-3.64-4.15-5.47-6.22-.21-.24-.35-.49-.1-.76s.51-.16.77,0L721,93.52a.6.6,0,0,1,.2.22C721.53,94.63,721.88,95.53,722.15,96.18Z"/><path class="cls-10" d="M691.61,128.33l-1,.93a14.73,14.73,0,0,1-2.83-2.12L682,120.51a.49.49,0,0,1-.05-.71c.22-.24.47-.18.71,0l5,3.64c.9.65,1.79,1.3,2.67,2a1,1,0,0,1,.34.38C691,126.64,691.29,127.5,691.61,128.33Z"/><path class="cls-10" d="M690,99.62l1,.87c-.3.86-.61,1.77-.94,2.67a.91.91,0,0,1-.29.33l-7.32,5.85c-.35.27-.6.3-.8.07s-.14-.5.06-.74l3.54-4.4c.33-.42.69-.83,1-1.26A13.16,13.16,0,0,1,690,99.62Z"/><path class="cls-10" d="M693.49,97.89l-1-1.1c.22-.65.54-1.57.87-2.48a.74.74,0,0,1,.26-.27l7.35-5.87.12-.09a.47.47,0,0,1,.65,0,.46.46,0,0,1,0,.68c-1.91,2.35-3.78,4.75-5.76,7A19,19,0,0,1,693.49,97.89Z"/><path class="cls-10" d="M721.86,130.29l.9.92.21-.16a10.55,10.55,0,0,0-.4,1.2,4.53,4.53,0,0,1-1.94,2.77c-2.12,1.6-4.17,3.3-6.25,5-.24.19-.49.29-.74.06s-.17-.5,0-.76c1.74-2.16,3.49-4.31,5.22-6.48A14.52,14.52,0,0,1,721.86,130.29Z"/><path class="cls-10" d="M693.18,132l1-1.07a13.65,13.65,0,0,1,3,2.36l5.53,6.27c.21.25.32.5.06.76s-.49.15-.74,0l-7.62-5.58a.83.83,0,0,1-.29-.33C693.77,133.46,693.43,132.59,693.18,132Z"/><path class="cls-10" d="M725.35,128.57l-1.05-.93c.13-.39.32-.84.43-1.31a4.19,4.19,0,0,1,1.7-2.45c2.18-1.65,4.28-3.4,6.43-5.09a.84.84,0,0,1,.6-.17c.36.07.41.47.14.82-.76,1-1.52,1.9-2.29,2.84-1.14,1.39-2.22,2.83-3.44,4.14A25.37,25.37,0,0,1,725.35,128.57Z"/><path class="cls-10" d="M723.69,99.75a5.4,5.4,0,0,0,.54-.41,5.25,5.25,0,0,0,.39-.49,14.75,14.75,0,0,1,3.28,2.55c1.8,2.07,3.62,4.13,5.44,6.19.21.23.3.48.07.73s-.49.17-.74,0l-7.65-5.6a.89.89,0,0,1-.31-.36C724.36,101.49,724,100.63,723.69,99.75Z"/><path class="cls-9" d="M693,98.73a1.24,1.24,0,0,1-1.27,1.28,1.25,1.25,0,0,1-1.3-1.27,1.3,1.3,0,0,1,1.28-1.29A1.27,1.27,0,0,1,693,98.73Z"/><path class="cls-9" d="M693.61,130a1.27,1.27,0,0,1-1.27,1.3,1.28,1.28,0,0,1,0-2.56A1.25,1.25,0,0,1,693.61,130Z"/><path class="cls-9" d="M723,99.35a1.25,1.25,0,0,1-1.28-1.29A1.28,1.28,0,1,1,723,99.35Z"/><path class="cls-9" d="M723.64,130.68a1.29,1.29,0,0,1,0-2.57,1.29,1.29,0,0,1,1.3,1.28A1.31,1.31,0,0,1,723.64,130.68Z"/><path class="cls-9" d="M689.24,99.54a2.51,2.51,0,0,1,.66-2.64,2.44,2.44,0,0,1,2.15-.7c-.06.63-.12.69-.67.78a1.66,1.66,0,0,0-1.45,1.58C689.93,99.1,689.64,99.29,689.24,99.54Z"/><path class="cls-9" d="M692.83,132.57a2.57,2.57,0,0,1-3-3.22c.37.24.7.37.71.91a1.67,1.67,0,0,0,1.52,1.56C692.68,131.89,692.72,131.93,692.83,132.57Z"/><path class="cls-9" d="M722.48,95.56a2.56,2.56,0,0,1,3,3.21c-.39-.23-.7-.39-.72-.93a1.65,1.65,0,0,0-1.5-1.53C722.62,96.23,722.62,96.23,722.48,95.56Z"/><path class="cls-9" d="M726.08,128.59a2.5,2.5,0,0,1-.54,2.52,2.47,2.47,0,0,1-2.26.82c0-.58.12-.7.64-.78a1.66,1.66,0,0,0,1.47-1.57C725.38,129.05,725.66,128.83,726.08,128.59Z"/><path class="cls-9" d="M720.51,97.45a1.08,1.08,0,0,1,.74.91,1.66,1.66,0,0,0,1.49,1.47c.54.09.58.13.68.76a2.56,2.56,0,0,1-2.91-3.14Z"/><path class="cls-9" d="M694.82,130.69c-.42-.22-.69-.41-.74-.92a1.68,1.68,0,0,0-1.49-1.47c-.55-.09-.57-.11-.7-.76a2.45,2.45,0,0,1,2.18.64A2.54,2.54,0,0,1,694.82,130.69Z"/><path class="cls-9" d="M721.21,130.16a2.52,2.52,0,0,1,.6-2.53,2.43,2.43,0,0,1,2.17-.77c-.07.62-.12.68-.64.78a1.68,1.68,0,0,0-1.45,1.6C721.88,129.78,721.51,129.88,721.21,130.16Z"/><path class="cls-9" d="M694.11,98a2.53,2.53,0,0,1-2.75,3.25c0-.52.12-.68.6-.77A1.68,1.68,0,0,0,693.42,99,1.06,1.06,0,0,1,694.11,98Z"/><path class="cls-9" d="M723.63,95.34l.24-.23c.43-.36.54-.37,1,0s.68.65,1,1,.39.49.07.93c0,.08-.12.15-.22.28A2.94,2.94,0,0,0,723.63,95.34Z"/><path class="cls-9" d="M689.62,130.81a3,3,0,0,0,2.08,2l-.38.32a.45.45,0,0,1-.7,0l-1.3-1.24a.43.43,0,0,1,0-.61C689.37,131.13,689.48,131,689.62,130.81Z"/><path class="cls-9" d="M724.42,132.1a2.87,2.87,0,0,0,1.94-2c.62.42.66.7.17,1.22-.29.31-.59.61-.88.91s-.55.43-1,.06A2.9,2.9,0,0,1,724.42,132.1Z"/><path class="cls-9" d="M690.92,96a2.86,2.86,0,0,0-2,2c-.62-.51-.65-.71-.15-1.25.29-.31.59-.61.89-.92s.51-.41.95-.08Z"/><path class="cls-11" d="M699,129.82a.62.62,0,0,1,.35-.57.51.51,0,0,1,.58.11c.43.36.85.75,1.31,1.08a11.2,11.2,0,0,0,10.5,1.33,10.86,10.86,0,0,0,4-2.63.52.52,0,0,1,.76.72,12.35,12.35,0,0,1-8.63,3.7,11.66,11.66,0,0,1-4.44-.79,12,12,0,0,1-4.13-2.58A3.28,3.28,0,0,1,699,129.82Z"/><path class="cls-11" d="M707.84,130.09a7.94,7.94,0,0,1-4-1,15.7,15.7,0,0,1-1.7-1.24.49.49,0,0,1,0-.75.51.51,0,0,1,.74,0,6.86,6.86,0,0,0,6,1.83,6.76,6.76,0,0,0,3.61-1.86l.15-.14a.48.48,0,0,1,.71,0,.46.46,0,0,1,0,.73,15.21,15.21,0,0,1-1.55,1.23,6.86,6.86,0,0,1-2.65,1C708.76,130,708.3,130,707.84,130.09Z"/><path class="cls-11" d="M711.41,124.91a1.71,1.71,0,0,1-.21.35,4.86,4.86,0,0,1-4.55,1.35,4.62,4.62,0,0,1-2.3-1.18c-.31-.28-.34-.52-.1-.79a.53.53,0,0,1,.8,0,3.87,3.87,0,0,0,4,.81,3.75,3.75,0,0,0,1.45-.91.51.51,0,0,1,.77,0A2.63,2.63,0,0,1,711.41,124.91Z"/><path class="cls-2" d="M706.45,120.81a1.34,1.34,0,0,1,2.67,0,1.34,1.34,0,1,1-2.67,0Zm2.18,0a.85.85,0,0,0-.88-.84.84.84,0,1,0,.88.84Z"/><path class="cls-2" d="M709,119.49a.33.33,0,0,1,.33-.33.33.33,0,1,1,0,.66A.33.33,0,0,1,709,119.49Z"/></g><text class="cls-22" transform="translate(753.05 27.08)">H10: 100m</text><text class="cls-22" transform="translate(753.05 123.51)">H7: 70m</text><text class="cls-22" transform="translate(753.05 201.45)">H2: 20m</text><g class="cls-17"><path class="cls-9" d="M724.23,209.42a2.85,2.85,0,0,0-2.61,1,3.05,3.05,0,0,0-.61,2.73l-.22-.29-3.24-4.53a1.85,1.85,0,0,0-.35-.39c-1.41-1.18-2.84-2.36-4.26-3.53a.49.49,0,0,1-.14-.21,3.46,3.46,0,0,0-1.27-1.86,5.87,5.87,0,0,0-8,.44,2.78,2.78,0,0,0-.92,1.89.43.43,0,0,1-.17.26c-1.21,1.13-2.46,2.23-3.65,3.38a7.65,7.65,0,0,0-1,1.33c-.83,1.26-1.64,2.53-2.46,3.79a1.32,1.32,0,0,1-.22.26,3,3,0,0,0-.7-2.69,2.84,2.84,0,0,0-2.65-.84l0-.1a2,2,0,0,1,.25-.25l4.31-3.09a.93.93,0,0,0,.27-.21c1.15-1.38,2.39-2.71,3.45-4.18a8.55,8.55,0,0,0-.26-10.55c-1.11-1.39-2.37-2.66-3.59-4a4.89,4.89,0,0,0-1-.68l-3.72-2.43c-.1-.06-.19-.14-.38-.28,2.56-.07,3.65-1.3,3.35-3.76l.23.29,2.85,4a3.44,3.44,0,0,0,.28.36c1.9,1.88,3.76,3.87,6.29,4.87a8.62,8.62,0,0,0,9.38-1.72c.57-.5,1.1-1,1.68-1.52a14.45,14.45,0,0,0,3-3.61c.6-1,1.24-1.95,1.86-2.92a1.66,1.66,0,0,1,.25-.3,3,3,0,0,0,.69,2.69,2.84,2.84,0,0,0,2.65.84l0,.1a1.55,1.55,0,0,1-.21.23c-.65.47-1.29,1-2,1.39a19.2,19.2,0,0,0-4.91,4.56,13,13,0,0,0-2.2,3.34,8.83,8.83,0,0,0,1.73,9.36c.51.59,1.07,1.14,1.57,1.73a14.19,14.19,0,0,0,3.55,3c.92.56,1.82,1.16,2.72,1.75a2.78,2.78,0,0,1,.27.21Z"/><path class="cls-9" d="M707.74,205.44c-1.21-.07-2.44,0-3.64-.14-1-.12-1.23-.72-.69-1.58a4.82,4.82,0,0,1,3.44-2.21,5.17,5.17,0,0,1,4.71,1.49,3.24,3.24,0,0,1,.64.92.71.71,0,0,1-.44,1.11,7.21,7.21,0,0,1-1.32.29c-.42.06-.85.07-1.27.09l-1.43,0Z"/><path class="cls-10" d="M722.24,179l-1,1.08a14.42,14.42,0,0,1-3.07-2.4c-1.81-2.08-3.64-4.15-5.47-6.22-.21-.24-.35-.48-.1-.76s.51-.16.77,0l7.68,5.62a.69.69,0,0,1,.2.22Z"/><path class="cls-10" d="M691.71,211.13l-1,.93a14.33,14.33,0,0,1-2.83-2.12c-2-2.2-3.91-4.42-5.86-6.63a.47.47,0,0,1,0-.7c.21-.25.46-.18.7,0l5,3.64c.9.65,1.79,1.3,2.67,2a1,1,0,0,1,.34.39C691.05,209.44,691.38,210.31,691.71,211.13Z"/><path class="cls-10" d="M690.13,182.42l1,.88c-.3.85-.61,1.76-.94,2.66a.83.83,0,0,1-.29.33l-7.32,5.85c-.35.27-.59.3-.8.07s-.14-.5.06-.74l3.54-4.4c.34-.42.69-.83,1-1.26A13.31,13.31,0,0,1,690.13,182.42Z"/><path class="cls-10" d="M693.58,180.69l-1.05-1.09c.22-.65.54-1.57.87-2.49a.83.83,0,0,1,.26-.27L701,171l.12-.09a.48.48,0,0,1,.67.69c-1.92,2.36-3.79,4.75-5.77,7.05A18.2,18.2,0,0,1,693.58,180.69Z"/><path class="cls-10" d="M722,213.09l.9.92.21-.15c-.13.4-.31.79-.4,1.2a4.56,4.56,0,0,1-1.93,2.76c-2.13,1.6-4.18,3.3-6.26,5-.24.19-.48.3-.74.06s-.17-.5,0-.76c1.74-2.15,3.49-4.31,5.22-6.47A14.54,14.54,0,0,1,722,213.09Z"/><path class="cls-10" d="M693.27,214.75l1-1.06a13.86,13.86,0,0,1,3,2.35q2.75,3.15,5.52,6.28c.22.24.32.49.06.75s-.49.15-.74,0l-7.62-5.58a.77.77,0,0,1-.29-.33C693.86,216.27,693.52,215.39,693.27,214.75Z"/><path class="cls-10" d="M725.44,211.37l-1.05-.92c.13-.4.32-.85.43-1.31a4.13,4.13,0,0,1,1.7-2.45c2.18-1.66,4.29-3.4,6.43-5.1a.84.84,0,0,1,.6-.17c.36.08.41.48.14.82-.76.95-1.52,1.9-2.29,2.84-1.14,1.39-2.22,2.83-3.44,4.15A25.26,25.26,0,0,1,725.44,211.37Z"/><path class="cls-10" d="M723.78,182.56a5.38,5.38,0,0,0,.54-.42c.14-.14.25-.31.4-.49A14.93,14.93,0,0,1,728,184.2q2.71,3.11,5.44,6.19c.21.23.3.48.07.73s-.49.18-.74,0l-7.65-5.61a.89.89,0,0,1-.31-.36C724.45,184.29,724.12,183.43,723.78,182.56Z"/><path class="cls-9" d="M693,181.53a1.28,1.28,0,0,1-2.56,0,1.28,1.28,0,1,1,2.56,0Z"/><path class="cls-9" d="M693.7,212.84a1.25,1.25,0,0,1-1.27,1.3,1.28,1.28,0,0,1,0-2.56A1.26,1.26,0,0,1,693.7,212.84Z"/><path class="cls-9" d="M723.08,182.15a1.28,1.28,0,0,1,0-2.56,1.28,1.28,0,1,1,0,2.56Z"/><path class="cls-9" d="M723.73,213.48a1.28,1.28,0,0,1,0-2.56,1.28,1.28,0,1,1,0,2.56Z"/><path class="cls-9" d="M689.33,182.34a2.52,2.52,0,0,1,.66-2.64,2.41,2.41,0,0,1,2.15-.69c-.06.62-.12.68-.67.78a1.64,1.64,0,0,0-1.45,1.57C690,181.9,689.73,182.1,689.33,182.34Z"/><path class="cls-9" d="M692.92,215.37a2.43,2.43,0,0,1-2.29-.7,2.47,2.47,0,0,1-.66-2.52c.37.24.7.38.72.91a1.65,1.65,0,0,0,1.51,1.56C692.78,214.69,692.81,214.73,692.92,215.37Z"/><path class="cls-9" d="M722.57,178.36a2.5,2.5,0,0,1,2.35.75,2.46,2.46,0,0,1,.61,2.46c-.39-.22-.7-.39-.72-.93a1.65,1.65,0,0,0-1.5-1.53C722.72,179,722.71,179,722.57,178.36Z"/><path class="cls-9" d="M726.17,211.4a2.49,2.49,0,0,1-.54,2.51,2.46,2.46,0,0,1-2.26.82c0-.57.12-.69.64-.78a1.64,1.64,0,0,0,1.47-1.56C725.47,211.85,725.75,211.64,726.17,211.4Z"/><path class="cls-9" d="M720.6,180.25a1.08,1.08,0,0,1,.74.92,1.66,1.66,0,0,0,1.49,1.46c.54.09.58.13.68.76a2.45,2.45,0,0,1-2.2-.67A2.49,2.49,0,0,1,720.6,180.25Z"/><path class="cls-9" d="M694.91,213.49a1.06,1.06,0,0,1-.74-.92,1.68,1.68,0,0,0-1.49-1.47c-.55-.09-.57-.11-.7-.75a2.42,2.42,0,0,1,2.18.64A2.51,2.51,0,0,1,694.91,213.49Z"/><path class="cls-9" d="M721.3,213a2.53,2.53,0,0,1,.6-2.54,2.46,2.46,0,0,1,2.17-.77c-.07.63-.12.68-.64.79a1.68,1.68,0,0,0-1.45,1.6C722,212.58,721.6,212.68,721.3,213Z"/><path class="cls-9" d="M694.2,180.82a2.52,2.52,0,0,1-2.74,3.24c0-.51.11-.67.59-.77a1.67,1.67,0,0,0,1.46-1.54A1,1,0,0,1,694.2,180.82Z"/><path class="cls-9" d="M723.72,178.14l.24-.22c.43-.37.54-.37,1,0s.68.66,1,1,.39.48.07.92l-.23.28A2.94,2.94,0,0,0,723.72,178.14Z"/><path class="cls-9" d="M689.71,213.61a2.94,2.94,0,0,0,2.08,2l-.38.32a.45.45,0,0,1-.7,0l-1.3-1.24a.43.43,0,0,1,0-.61C689.46,213.93,689.57,213.8,689.71,213.61Z"/><path class="cls-9" d="M724.51,214.9a2.88,2.88,0,0,0,2-2c.61.42.65.7.16,1.22l-.88.92c-.41.41-.55.42-1,.06A1.81,1.81,0,0,1,724.51,214.9Z"/><path class="cls-9" d="M691,178.83a2.9,2.9,0,0,0-2,2c-.62-.5-.64-.71-.15-1.25.29-.31.59-.61.89-.91s.51-.42,1-.09Z"/><path class="cls-11" d="M699.07,212.62a.62.62,0,0,1,.35-.57.52.52,0,0,1,.58.11c.43.37.85.75,1.31,1.08a11.15,11.15,0,0,0,14.48-1.3.52.52,0,0,1,.76.72,12.35,12.35,0,0,1-8.62,3.7,11.67,11.67,0,0,1-4.45-.78,12.12,12.12,0,0,1-4.13-2.59A2.57,2.57,0,0,1,699.07,212.62Z"/><path class="cls-11" d="M707.93,212.9a8,8,0,0,1-4-1,14.46,14.46,0,0,1-1.7-1.24.49.49,0,0,1,0-.75.51.51,0,0,1,.74,0,6.86,6.86,0,0,0,6,1.83,6.63,6.63,0,0,0,3.61-1.86l.15-.13a.46.46,0,0,1,.71,0,.45.45,0,0,1,0,.72,16.83,16.83,0,0,1-1.55,1.24,7,7,0,0,1-2.65,1C708.85,212.8,708.39,212.84,707.93,212.9Z"/><path class="cls-11" d="M711.5,207.71a1.48,1.48,0,0,1-.21.35,4.87,4.87,0,0,1-4.55,1.36,4.75,4.75,0,0,1-2.3-1.18c-.31-.28-.34-.53-.1-.8a.53.53,0,0,1,.8,0,3.86,3.86,0,0,0,4,.8,3.66,3.66,0,0,0,1.45-.9.5.5,0,0,1,.77,0A2.63,2.63,0,0,1,711.5,207.71Z"/><path class="cls-2" d="M706.54,203.62a1.34,1.34,0,0,1,1.33-1.36,1.34,1.34,0,0,1,0,2.67A1.34,1.34,0,0,1,706.54,203.62Zm2.18,0a.83.83,0,0,0-.87-.83.82.82,0,0,0-.81.83.84.84,0,1,0,1.68,0Z"/><path class="cls-2" d="M709.09,202.3a.34.34,0,0,1,.33-.34.34.34,0,1,1,0,.67A.34.34,0,0,1,709.09,202.3Z"/></g><g class="cls-17"><line class="cls-18" x1="708.9" y1="274.9" x2="708.85" y2="268.9"/><line class="cls-23" x1="708.74" y1="256.72" x2="706.87" y2="43.65"/><line class="cls-18" x1="706.81" y1="37.57" x2="706.76" y2="31.57"/></g></g></g></svg>